<?xml version="1.0" encoding="UTF-8" standalone="no"?>
<!-- Created with Inkscape (http://www.inkscape.org/) -->

<svg
   version="1.1"
   id="svg3486"
   width="57.014355"
   height="57.014362"
   viewBox="0 0 57.014355 57.014362"
   sodipodi:docname="school-finder-icon.svg"
   inkscape:version="1.2.2 (b0a8486541, 2022-12-01)"
   inkscape:export-filename="favicon.png"
   inkscape:export-xdpi="96"
   inkscape:export-ydpi="96"
   xmlns:inkscape="http://www.inkscape.org/namespaces/inkscape"
   xmlns:sodipodi="http://sodipodi.sourceforge.net/DTD/sodipodi-0.dtd"
   xmlns="http://www.w3.org/2000/svg"
   xmlns:svg="http://www.w3.org/2000/svg">
  <defs
     id="defs3490">
    <clipPath
       clipPathUnits="userSpaceOnUse"
       id="clipPath3100">
      <circle
         style="opacity:1;fill:#050811;fill-opacity:1;stroke:none;stroke-width:3.77953"
         id="circle3102"
         cx="745.04034"
         cy="-987.58014"
         r="111.91211" />
    </clipPath>
    <clipPath
       clipPathUnits="userSpaceOnUse"
       id="clipPath3211">
      <circle
         style="opacity:1;fill:#050811;fill-opacity:1;stroke:none;stroke-width:3.77953"
         id="circle3213"
         cx="745.04034"
         cy="-987.58014"
         r="111.91211" />
    </clipPath>
    <clipPath
       clipPathUnits="userSpaceOnUse"
       id="clipPath3625">
      <circle
         style="opacity:1;fill:#050811;fill-opacity:1;stroke:none;stroke-width:3.77953"
         id="circle3623"
         cx="745.04034"
         cy="-987.58014"
         r="111.91211" />
    </clipPath>
  </defs>
  <sodipodi:namedview
     id="namedview3488"
     pagecolor="#ffffff"
     bordercolor="#000000"
     borderopacity="0.25"
     inkscape:showpageshadow="2"
     inkscape:pageopacity="0.0"
     inkscape:pagecheckerboard="0"
     inkscape:deskcolor="#d1d1d1"
     showgrid="false"
     inkscape:zoom="7.3951584"
     inkscape:cx="38.065446"
     inkscape:cy="32.99456"
     inkscape:window-width="1366"
     inkscape:window-height="683"
     inkscape:window-x="0"
     inkscape:window-y="0"
     inkscape:window-maximized="1"
     inkscape:current-layer="g3492" />
  <g
     inkscape:groupmode="layer"
     inkscape:label="Image"
     id="g3492"
     transform="translate(4.3062505,4.587645)">
    <g
       id="g35546"
       transform="matrix(0.41893825,0.54088236,-0.54088236,0.41893825,-830.65552,102.09728)"
       style="fill:#050811;fill-opacity:1">
      <path
         id="circle35538"
         style="opacity:1;stroke-width:1.40722"
         d="m 716.46407,-1057.8243 a 41.667927,41.667927 0 0 1 -41.66793,41.6679 41.667927,41.667927 0 0 1 -41.66792,-41.6679 41.667927,41.667927 0 0 1 41.66792,-41.668 41.667927,41.667927 0 0 1 41.66793,41.668 z" />
      <path
         style="opacity:1;fill:#050811;fill-opacity:1;stroke:none;stroke-width:3.77953"
         d="m 705.84688,-1092.3017 c 20.30762,117.28197 81.76206,72.752 42.23373,230.34312 163.52536,36.79816 200.95483,-230.09782 200.95483,-230.09782 0,0 -262.52243,-53.0216 -257.39316,-47.9086 5.12927,5.1129 24.41245,-38.048 14.2046,47.6633 z"
         id="path35540"
         clip-path="url(#clipPath3100)"
         sodipodi:nodetypes="cccsc"
         transform="matrix(0.37232723,0,0,0.37232723,397.39736,-690.12135)" />
      <path
         id="circle35542"
         clip-path="url(#clipPath3211)"
         style="opacity:1;stroke-width:3.77953"
         transform="matrix(0.37232723,0,0,0.37232723,397.39736,-690.12135)"
         d="m 853.18389,-890.60785 a 95.772942,95.772942 0 0 1 -95.77294,95.77294 95.772942,95.772942 0 0 1 -95.77294,-95.77294 95.772942,95.772942 0 0 1 95.77294,-95.77294 95.772942,95.772942 0 0 1 95.77294,95.77294 z" />
      <path
         style="opacity:1;fill:#050811;fill-opacity:1;stroke:none;stroke-width:3.77953"
         d="m 705.84688,-1092.3017 c 20.30762,117.28197 81.76206,72.752 42.23373,230.34312 163.52536,36.79816 200.95483,-230.09782 200.95483,-230.09782 0,0 -262.52243,-53.0216 -257.39316,-47.9086 5.12927,5.1129 24.41245,-38.048 14.2046,47.6633 z"
         id="path35544"
         clip-path="url(#clipPath3100)"
         sodipodi:nodetypes="cccsc"
         transform="matrix(0.37232723,0,0,0.37232723,397.39736,-690.12135)" />
    </g>
    <g
       aria-label="F"
       transform="matrix(1.1687648,-0.27014606,0.27014606,1.1687648,-4.8300003,-4.7738399)"
       id="text35550"
       style="font-weight:900;font-size:37.3882px;font-family:Montserrat;-inkscape-font-specification:'Montserrat, Heavy';fill:#ff7f2a;stroke-width:1.73631">
      <path
         d="m 24.247038,29.110065 v 4.486584 h 10.917354 v 6.6551 H 24.247038 v 8.374956 H 15.423423 V 22.454966 h 21.273885 v 6.655099 z"
         id="path7610" />
    </g>
    <path
       style="fill:#ff7f2a;fill-opacity:1;stroke:none;stroke-width:0.240721;stroke-dasharray:none"
       d="M 44.20318,11.58915 25.301187,-3.9887618 18.294415,17.57386 Z"
       id="path35552"
       sodipodi:nodetypes="cccc" />
    <g
       aria-label="S"
       transform="matrix(1.1932385,0.1231743,-0.1231743,1.1932385,-4.8300003,-4.7738399)"
       id="text35556"
       style="font-weight:900;font-size:37.3882px;font-family:Montserrat;-inkscape-font-specification:'Montserrat, Heavy';fill:#ffffff;stroke-width:1.73631">
      <path
         d="m 20.070136,38.423494 q -3.252773,0 -6.355994,-0.710376 -3.065832,-0.747764 -5.0474066,-1.981574 l 2.8415036,-6.43077 q 1.869409,1.084257 4.187478,1.757245 2.318068,0.635599 4.449195,0.635599 1.832022,0 2.617174,-0.336493 0.785153,-0.373882 0.785153,-1.084258 0,-0.82254 -1.04687,-1.233811 -1.009481,-0.41127 -3.364938,-0.897316 -3.028444,-0.6356 -5.047407,-1.345976 Q 12.069062,26.048 10.573534,24.40292 9.0780056,22.720451 9.0780056,19.878948 q 0,-2.467622 1.3833634,-4.486584 1.383363,-2.018963 4.112702,-3.177997 2.766727,-1.159034 6.692487,-1.159034 2.691951,0 5.271736,0.598211 2.617174,0.560823 4.598749,1.682469 l -2.654562,6.393382 q -3.850985,-1.944187 -7.290699,-1.944187 -3.402326,0 -3.402326,1.645081 0,0.785152 1.009481,1.196423 1.009482,0.373882 3.32755,0.82254 2.991056,0.560823 5.047407,1.308587 2.056351,0.710376 3.551879,2.355456 1.532916,1.645081 1.532916,4.486584 0,2.467621 -1.383363,4.486584 -1.383364,1.981575 -4.150091,3.177997 -2.729338,1.159034 -6.655099,1.159034 z"
         id="path7613" />
    </g>
    <path
       style="fill:#ffffff;fill-opacity:1;stroke:none;stroke-width:0.240721;stroke-dasharray:none"
       d="M 25.32202,-3.9794916 20.065866,17.751601 5.1806129,15.677934 Z"
       id="path35558"
       sodipodi:nodetypes="cccc" />
  </g>
</svg>
